<svg id="Laag_1" data-name="Laag 1" xmlns="http://www.w3.org/2000/svg" viewBox="45 23 127 84"><defs><style>.cls-1{fill:#ffffff;}</style></defs><title>Tekengebied 1 kopie</title><path class="cls-1" d="M148.87,88.59a15.72,15.72,0,0,0-2.68-1c-12.53-3.36-56.2-5.22-70.91-5.43A70.15,70.15,0,0,0,64,81.35l-.18,0a9,9,0,0,0-3,1.09,3.49,3.49,0,0,0-.27,2,1.9,1.9,0,0,1,0,.35c1.53,2.25,4.8,4.89,7,5.48,5.14,1.38,48.9-1.11,80.54,3.56,3.62.54,5.09.07,5.3-.73C153.74,92,151.81,90.17,148.87,88.59Z"/><path class="cls-1" d="M62.53,77.35c-2.3,0-3.61-1.45-3.61-3.88,0-3.61,3.54-4.44,6.73-4.79a9.38,9.38,0,0,0,2.43-.42c4.3-1.52,11.38-7.84,11.38-13.05,0-.83-3.54-4.3-15.06-4.3a36,36,0,0,0-9,1.6c0,5.48.07,8.19.76,11.1a16.19,16.19,0,0,1,.76,4c0,2.36-1,4.51-3.81,4.51-2.5,0-5.35-1.94-5.35-6.87,0-.76.21-2,.21-2.85,0-3-.07-6.87-.07-11.24s0-9,.07-12.08a3.45,3.45,0,0,1-2.36-3.4A6.05,6.05,0,0,1,48,31.06a4.56,4.56,0,0,1,4.23-3.82,3.38,3.38,0,0,1,2.5,1.18c3.82-1.11,12.7-3.33,19-3.33,2.64,0,6.87.14,6.87,4C80.57,34,73.42,40.57,69,43.9c6.73.83,17.77,3,18,11.66C86.89,66.74,69.88,77.35,62.53,77.35Zm8.74-45.59c-2.43,0-15.55,4.51-15.69,4.85-.48.77-.55,2.92-.55,5.07v2.15C61.48,40.64,71.69,34.32,71.69,32,71.69,31.82,71.55,31.76,71.27,31.76Z"/><path class="cls-1" d="M100.07,29.6a11.84,11.84,0,0,0-1.66,4.93,3.67,3.67,0,0,1-3.54,3.12c-1.6,0-3.13-1.11-3.13-3.74,0-2.36,1.18-4.51,2-7,.9-2.78,2.36-3.82,3.75-3.82,1.8,0,3.47,1.67,3.47,4.09A6.65,6.65,0,0,1,100.07,29.6Zm-.9,35.89c0,1.59.83,2.77.83,4a4,4,0,0,1-3.74,4.1c-4,0-4.24-3.68-4.24-7.85,0-3.05.42-7.49.7-12.84.13-2.84-.21-9.16,4-9.16,2.57,0,4,2.08,4,4.44C100.77,50.36,99.17,61.74,99.17,65.49Z"/><path class="cls-1" d="M144.7,71.94C142,73,140.61,74,136.16,74,128,74,119.92,68.75,114,64a38.2,38.2,0,0,0-.13,3.89c0,4.78.55,5.62.55,7.56,0,2.15-.83,3.54-4.16,3.54-2.29,0-3.4-5.69-3.4-13,0-9.92,3.33-34.91,7.07-36.3a4.79,4.79,0,0,1,1.67-.34,4.2,4.2,0,0,1,4,4.37,7.74,7.74,0,0,1-.91,3c-1.45,3.4-2.49,8.89-3.12,13.26,5.55-1.67,19.23-5.76,21.86-5.76s3.33,1.32,3.33,2.78a4.85,4.85,0,0,1-1.66,3.67c-1,.7-6.39,1.6-8,2a101.06,101.06,0,0,0-14.3,4.51c4.79,4.09,13.74,9.92,20.34,9.92,3,0,4.3-1.25,4.37-1.45a3.12,3.12,0,0,1,3.05-1.88,4.31,4.31,0,0,1,4.24,4C148.8,69.23,147.75,70.83,144.7,71.94Z"/><path class="cls-1" d="M171.28,55.08c0,2.49-.62,10.41-3.12,29.91-.83,6.66-1.39,9.58-2,13.88a5.76,5.76,0,0,1,1.32,3.47c0,2.43-2.36,3.82-4.65,3.82a4,4,0,0,1-4.24-4A8.35,8.35,0,0,1,159.9,98c.62-1,1-10.83,1.8-20.55.7-7.56.91-11.24,1.39-16.1-4.16,4.44-9.78,10.83-12.56,10.83s-3.75-3.61-3.75-7.77c0-5.07,1.18-11.18,1.39-13.26.63-6,2.5-7.84,4.37-7.84s4.17,1.94,4.17,3.88c0,1.67-2.85,12.7-2.85,14.37,0,.07,0,.21.07.21.9,0,7.29-8.75,8.68-10.9.83-1.32,2.15-4,4.3-4C170.59,46.89,171.28,52,171.28,55.08Z"/></svg>
