<svg id="Laag_1" data-name="Laag 1" xmlns="http://www.w3.org/2000/svg" viewBox="9 2 51 47"><defs><style>.cls-1{fill:none;stroke:#000;stroke-miterlimit:10;stroke-width:0.7px;}.cls-2{fill:#fff;}.cls-3{fill:#00d802;}</style></defs><title>Tekengebied 6</title><path class="cls-1" d="M50,29.71a9,9,0,0,0-3.17.58L43.7,20.53a.95.95,0,1,0-1.8.59l1.5,4.63L41.28,28,30.06,29.31l-.82-2.93a.95.95,0,0,0-1.83.51l.87,3.1L25,32.51A9.1,9.1,0,1,0,26.18,34l2.65-2,2,7.06a1.33,1.33,0,0,0,1,.95,1.17,1.17,0,0,0,.32,0,1.35,1.35,0,0,0,1-.43l11-11.76,1.07,3.33A9,9,0,1,0,50,29.71Zm-24.39,9a7.15,7.15,0,1,1-2.13-5.08L17.91,38a.95.95,0,0,0,.58,1.7.89.89,0,0,0,.58-.2l5.6-4.32A7.09,7.09,0,0,1,25.64,38.75Zm6.74-1.18-1.8-6.41,8.71-1ZM50,45.9a7.14,7.14,0,0,1-4.1-13l3.26,6.28a.94.94,0,0,0,.84.51.87.87,0,0,0,.44-.11,1,1,0,0,0,.4-1.28L47.6,32A7,7,0,0,1,50,31.61,7.15,7.15,0,0,1,50,45.9Z"/><path class="cls-2" d="M31.77,40a1.59,1.59,0,0,1-.48-.07,1.67,1.67,0,0,1-1.12-2.08l2.42-8.13a.36.36,0,0,0-.21-.43l-1-.38-.09,0-2.75-1.05a25.63,25.63,0,0,1-2.39-.94.57.57,0,0,0-.22-.07c-.62,0-1.38-1.32-1.65-2A4.07,4.07,0,0,1,24,22.64a31.57,31.57,0,0,1,1.54-4.25L27.3,13.9a2.18,2.18,0,0,1,2-1.4,2.07,2.07,0,0,1,.77.15l4.19,1.6A2.15,2.15,0,0,1,35.54,17l-.13.35a.35.35,0,0,0,.13.41L37.27,19a.31.31,0,0,0,.12.05l5.69,1.3A1.34,1.34,0,0,1,42.79,23h0a1.53,1.53,0,0,1-.3,0l-6.58-1.5A1.35,1.35,0,0,1,35,20.6a.33.33,0,0,0-.11-.15.36.36,0,0,0-.23-.08h-.09a.38.38,0,0,0-.24.22l-1.67,4.92a.34.34,0,0,0,0,.28.33.33,0,0,0,.23.17,7.52,7.52,0,0,1,1.6.51l.85.33a1.7,1.7,0,0,1,1,2.05l-3,9.92A1.68,1.68,0,0,1,31.77,40Z"/><path d="M29.33,12.85A1.73,1.73,0,0,1,30,13l4.2,1.6a1.83,1.83,0,0,1,1,2.35l-.14.34a.71.71,0,0,0,.27.83l1.73,1.17a.52.52,0,0,0,.23.1L43,20.66a1,1,0,0,1,.62.44,1,1,0,0,1,.13.74,1,1,0,0,1-1,.77l-.23,0L36,21.09a1,1,0,0,1-.7-.61.79.79,0,0,0-.23-.31.69.69,0,0,0-.44-.15.62.62,0,0,0-.19,0,.71.71,0,0,0-.47.45l-1.67,4.92a.72.72,0,0,0,.08.57.71.71,0,0,0,.48.34,7.49,7.49,0,0,1,1.5.49l.86.33A1.33,1.33,0,0,1,36,28.76l-3,9.92a1.34,1.34,0,0,1-1.27,1,1.34,1.34,0,0,1-1.16-.7,1.3,1.3,0,0,1-.11-1l2.43-8.13a.71.71,0,0,0-.42-.86l-1-.38-.12,0-2.7-1c-2.17-.82-2.21-.84-2.38-.93l-.05,0a.73.73,0,0,0-.33-.08c-.3,0-1-.86-1.33-1.74a3.67,3.67,0,0,1-.22-2v-.05a31.74,31.74,0,0,1,1.52-4.16L27.63,14a1.83,1.83,0,0,1,1.7-1.17m0-.7A2.51,2.51,0,0,0,27,13.77C23.66,22.46,23.8,22,23.7,22.58A4.34,4.34,0,0,0,24,25s.91,2.18,2,2.18c.35.18,0,0,5.32,2.07h0l1,.38-2.43,8.13a2,2,0,1,0,3.88,1.15l3-9.92a2,2,0,0,0-1.21-2.47A12.24,12.24,0,0,0,33,25.63l1.67-4.91h0a1.67,1.67,0,0,0,1.21,1.05l6.57,1.5a1.64,1.64,0,0,0,.38,0A1.69,1.69,0,0,0,43.16,20l-5.69-1.3-1.73-1.17.13-.34a2.52,2.52,0,0,0-1.45-3.25l-4.2-1.6a2.51,2.51,0,0,0-.89-.17Z"/><path class="cls-2" d="M35.27,11.52a4.39,4.39,0,1,1,4.39-4.39A4.39,4.39,0,0,1,35.27,11.52Z"/><path class="cls-3" d="M35.27,3.09a4,4,0,1,1-4,4,4,4,0,0,1,4-4m0-.7A4.74,4.74,0,1,0,40,7.13a4.74,4.74,0,0,0-4.74-4.74Z"/></svg>
