<?xml version="1.0" encoding="utf-8"?>
<!-- Generator: Adobe Illustrator 23.0.4, SVG Export Plug-In . SVG Version: 6.00 Build 0)  -->
<svg version="1.1" id="Laag_1" xmlns="http://www.w3.org/2000/svg" xmlns:xlink="http://www.w3.org/1999/xlink" x="0px" y="0px"
	 viewBox="27 77 548 445" style="enable-background:new 0 0 600 600;" xml:space="preserve">
<style type="text/css">
	.st0{fill:#FFFFFF;}
	.st1{fill:#020203;}
	.st2{fill:#54AF32;}
</style>
<g>
	<path class="st0" d="M169.92,514.35c-2.28,0-4.57-0.49-6.82-1.45c-7.45-3.19-11.07-8.95-11.06-17.6c0.02-15.33,0.02-30.66,0.01-46
		l0-28.26c0-2.6-2.11-4.7-4.7-4.7h-12.68c-2.6,0-4.7,2.11-4.7,4.7v34.2c0,4.06,0.01,8.12,0.01,12.18
		c0.01,8.99,0.03,18.29-0.03,27.43c-0.07,11.14-7.35,19.32-17.3,19.44l-0.22,0c-10.08,0-17.41-8.3-17.42-19.73l0-5.09
		c-0.04-48.73-0.09-99.12,0.11-148.67c0.03-6.69-2.11-11.77-6.92-16.47c-17.82-17.41-35.15-34.73-51.53-51.46
		c-4.23-4.32-5.85-9.71-4.44-14.79c1.33-4.81,5.17-8.37,10.52-9.77c1.19-0.31,2.36-0.47,3.48-0.47c3.64,0,7.11,1.71,10.64,5.23
		c3.61,3.6,7.2,7.22,10.8,10.83c9.49,9.54,19.3,19.41,29.2,28.89c3.39,3.25,8.75,5.48,13.35,5.57c10.01,0.19,20.37,0.29,30.77,0.29
		c10.14,0,20.65-0.09,31.23-0.27c4.39-0.07,9.49-2.19,12.7-5.27c9.17-8.79,18.26-17.93,27.05-26.78c3.56-3.58,7.12-7.16,10.69-10.72
		c5.11-5.1,10.1-7.79,14.43-7.79c3.25,0,6.25,1.46,9.19,4.45c6.59,6.73,5.51,14.3-3.3,23.13c-3.59,3.6-7.18,7.2-10.77,10.81
		c-12.41,12.47-25.24,25.35-38.04,37.83c-5.1,4.97-7.27,10.1-7.23,17.16c0.25,52.86,0.18,107.08,0.11,153.75
		C186.98,505.82,179.48,514.35,169.92,514.35C169.92,514.35,169.92,514.35,169.92,514.35z M140.89,282.81
		c-21.72-0.05-39.47-17.83-39.58-39.63c-0.05-10.51,4.06-20.45,11.56-27.99c7.55-7.58,17.54-11.76,28.13-11.76l0.45,0
		c21.75,0.24,39.36,18.18,39.24,39.98c-0.12,21.72-17.93,39.4-39.7,39.4C140.98,282.81,140.89,282.81,140.89,282.81z"/>
	<path class="st1" d="M141,208.13l0.39,0c19.17,0.21,34.69,16.03,34.59,35.25c-0.1,19.15-15.8,34.72-35,34.72l-0.08,0
		c-19.14-0.05-34.79-15.72-34.89-34.95c-0.04-9.25,3.57-18,10.19-24.65C122.86,211.82,131.66,208.13,141,208.13 M237.04,252.52
		c0.71,0,2.85,0,5.82,3.04c2.12,2.17,6.54,6.68-3.27,16.51c-3.59,3.59-7.17,7.19-10.75,10.79c-12.4,12.46-25.23,25.35-38.01,37.8
		c-5.94,5.79-8.69,12.32-8.66,20.55c0.25,52.85,0.18,107.06,0.11,153.72c-0.01,8.39-5.33,14.72-12.38,14.72
		c-1.64,0-3.31-0.36-4.97-1.07c-5.68-2.43-8.21-6.52-8.21-13.27c0.02-15.37,0.02-30.99,0.01-46.1c0-6.31,0-12.61,0-18.92v-9.25
		c0-5.2-4.21-9.41-9.41-9.41h-12.68c-5.2,0-9.41,4.21-9.41,9.41v11.6v22.6c0,4.03,0.01,8.06,0.01,12.09
		c0.01,9.01,0.03,18.34-0.03,27.48c-0.05,8.6-5.26,14.68-12.66,14.77l-0.16,0c-7.48,0-12.71-6.18-12.72-15.03l0-4.93
		c-0.04-48.78-0.09-99.22,0.11-148.81c0.03-7.96-2.62-14.27-8.34-19.85c-17.79-17.39-35.1-34.68-51.45-51.39
		c-3.02-3.09-4.22-6.82-3.27-10.24c0.87-3.15,3.49-5.51,7.18-6.47c0.8-0.21,1.57-0.32,2.28-0.32c1.48,0,3.86,0.4,7.31,3.85
		c3.61,3.6,7.2,7.21,10.79,10.83c9.51,9.56,19.34,19.45,29.28,28.97c4.25,4.07,10.73,6.77,16.51,6.88
		c10.05,0.19,20.43,0.29,30.87,0.29c10.16,0,20.69-0.09,31.3-0.27c5.58-0.1,11.81-2.68,15.88-6.58
		c9.21-8.83,18.32-17.99,27.13-26.85c3.56-3.58,7.11-7.15,10.68-10.72C230.08,254.8,234.03,252.52,237.04,252.52 M141,198.72
		c-24.43,0-44.51,20.06-44.39,44.48c0.12,24.42,19.93,44.25,44.27,44.31c0.04,0,0.07,0,0.11,0c24.28,0,44.27-19.84,44.4-44.08
		c0.13-24.37-19.56-44.43-43.89-44.7C141.33,198.73,141.16,198.72,141,198.72L141,198.72z M237.04,243.11
		c-5.62,0-11.64,3.06-17.75,9.17c-12.53,12.51-24.9,25.18-37.67,37.43c-2.34,2.25-6.29,3.91-9.53,3.96
		c-10.38,0.18-20.76,0.27-31.14,0.27c-10.23,0-20.46-0.09-30.69-0.29c-3.46-0.07-7.67-1.86-10.18-4.27
		c-13.54-12.98-26.66-26.4-39.93-39.66c-4.05-4.04-8.62-6.6-13.96-6.6c-1.49,0-3.05,0.2-4.67,0.62
		c-14.98,3.92-19.46,20.94-8.25,32.4c17,17.37,34.22,34.54,51.6,51.53c3.9,3.81,5.53,7.6,5.5,13.09
		c-0.2,51.26-0.15,102.52-0.1,153.78c0.01,14.08,9.52,24.43,22.13,24.43c0.09,0,0.19,0,0.28,0c12.48-0.15,21.87-10.39,21.95-24.12
		c0.08-13.21,0.02-26.42,0.02-39.64c0-11.29,0-22.58,0-34.2c4.41,0,8.02,0,12.68,0c0,3.51,0,6.38,0,9.25c0,21.67,0.02,43.33-0.01,65
		c-0.01,10.29,4.52,17.91,13.91,21.93c2.92,1.25,5.85,1.83,8.67,1.83c11.76,0,21.76-10.06,21.78-24.11
		c0.08-51.26,0.13-102.52-0.11-153.78c-0.03-5.82,1.72-9.78,5.81-13.76c16.46-16.04,32.61-32.41,48.85-48.68
		c10.6-10.63,11.75-21.13,3.33-29.74C245.76,245.06,241.52,243.11,237.04,243.11L237.04,243.11z"/>
</g>
<g>
	<path class="st2" d="M351.13,86.41L351.13,86.41c0.2,0,0.39,0,0.59,0c28.65,0.32,51.84,23.94,51.69,52.66
		c-0.07,13.78-5.57,26.79-15.49,36.63c-9.92,9.84-22.99,15.26-36.8,15.26l-0.13,0c-28.61-0.07-52-23.49-52.13-52.21
		c-0.07-13.83,5.34-26.92,15.23-36.85C324.03,91.91,337.18,86.41,351.13,86.41 M351.13,77c-33.94,0-61.85,27.88-61.69,61.8
		c0.16,33.93,27.7,61.49,61.52,61.57c0.05,0,0.1,0,0.15,0c33.73,0,61.52-27.57,61.7-61.25C413,105.26,385.63,77.38,351.83,77
		C351.59,77,351.37,77,351.13,77L351.13,77z"/>
</g>
<g>
	<path class="st0" d="M391.32,517.41c-3.42,0-6.85-0.73-10.2-2.16c-11.11-4.75-16.5-13.3-16.48-26.15
		c0.03-21.25,0.02-42.51,0.02-63.76l0-39.42c0-2.6-2.11-4.7-4.7-4.7h-17.63c-2.6,0-4.7,2.11-4.7,4.7v47.52
		c0,5.59,0.01,11.18,0.02,16.77c0.02,12.55,0.04,25.53-0.04,38.28c-0.1,16.53-10.97,28.65-25.85,28.83l-0.34,0
		c-15.07,0-26.02-12.3-26.04-29.25l-0.01-6.56c-0.06-67.88-0.13-138.08,0.15-207.11c0.04-8.87-2.68-15.33-9.06-21.57
		c-24.76-24.2-48.86-48.27-71.63-71.54c-6.25-6.39-8.73-14.73-6.63-22.32c2.03-7.32,7.83-12.74,15.92-14.86
		c1.81-0.47,3.59-0.71,5.3-0.71c5.56,0,10.82,2.55,16.07,7.8c5.01,5,10,10.03,15,15.05c13.18,13.25,26.81,26.96,40.56,40.13
		c4.4,4.21,11.35,7.12,17.31,7.23c13.91,0.27,28.29,0.4,42.74,0.4c14.08,0,28.66-0.13,43.34-0.38c5.67-0.1,12.26-2.84,16.41-6.81
		c8.79-8.43,17.32-16.87,25.86-25.43v60.68c-1.09,1.08-2.17,2.16-3.26,3.24c-2.39,2.38-4.78,4.76-7.2,7.11
		c-6.7,6.53-9.54,13.27-9.5,22.52c0.34,73.69,0.26,148.93,0.15,213.66C416.86,504.76,405.63,517.41,391.32,517.41
		C391.32,517.41,391.32,517.41,391.32,517.41z"/>
	<path class="st1" d="M219.4,148.12L219.4,148.12c2.71,0,6.99,0.67,12.75,6.42c5.01,5,10.09,10.11,15,15.05
		c13.2,13.27,26.84,26.99,40.63,40.2c5.27,5.05,13.31,8.4,20.48,8.54c13.94,0.27,28.34,0.4,42.82,0.4c14.1,0,28.71-0.13,43.43-0.38
		c6.88-0.12,14.57-3.3,19.59-8.12c6.07-5.82,12-11.63,17.9-17.49v47.38c-0.62,0.62-1.24,1.24-1.86,1.85
		c-2.35,2.34-4.78,4.75-7.17,7.09c-7.6,7.41-10.97,15.4-10.92,25.91c0.34,73.49,0.26,148.81,0.15,213.63
		c-0.01,6.91-2.32,13.18-6.5,17.68c-3.86,4.15-8.96,6.43-14.36,6.43c-2.78,0-5.59-0.6-8.35-1.78c-9.31-3.98-13.64-10.91-13.63-21.81
		c0.03-21.36,0.02-43.07,0.02-64.07c0-8.76-0.01-17.51-0.01-26.27v-12.85c0-5.2-4.21-9.41-9.41-9.41h-17.63
		c-5.2,0-9.41,4.21-9.41,9.41l0,16.11l0,31.41c0,5.59,0.01,11.18,0.02,16.78c0.02,12.54,0.04,25.51-0.04,38.24
		c-0.09,13.85-9,24.01-21.21,24.16l-0.28,0c-12.35,0-21.32-10.32-21.34-24.55l-0.01-6.71c-0.06-67.83-0.13-137.97,0.15-206.93
		c0.04-10.13-3.19-17.83-10.48-24.95c-24.74-24.18-48.81-48.22-71.55-71.46c-5.14-5.25-7.13-11.73-5.46-17.77
		c1.57-5.67,6.15-9.88,12.58-11.56C216.72,148.31,218.1,148.12,219.4,148.12 M219.4,138.71c-2.08,0-4.24,0.28-6.49,0.87
		c-20.82,5.45-27.04,29.1-11.47,45.02c23.62,24.14,47.55,48,71.7,71.61c5.42,5.29,7.68,10.56,7.65,18.19
		c-0.28,71.23-0.2,142.46-0.14,213.69c0.02,19.56,13.23,33.95,30.74,33.95c0.13,0,0.26,0,0.39,0c17.34-0.21,30.38-14.43,30.5-33.51
		c0.11-18.36,0.03-36.72,0.03-55.08c0-15.69,0-31.37,0-47.52c6.13,0,11.14,0,17.63,0c0,4.88,0,8.86,0,12.85
		c0,30.11,0.03,60.22-0.01,90.32c-0.02,14.3,6.28,24.89,19.33,30.48c4.05,1.73,8.12,2.54,12.05,2.54c16.34,0,30.24-13.98,30.27-33.5
		c0.12-71.23,0.18-142.46-0.15-213.69c-0.04-8.08,2.39-13.58,8.08-19.13c3.99-3.89,7.91-7.84,11.88-11.75v-74.03
		c-11.18,11.24-22.38,22.45-33.82,33.42c-3.26,3.12-8.74,5.43-13.24,5.51c-14.42,0.25-28.84,0.38-43.27,0.38
		c-14.22,0-28.43-0.13-42.64-0.4c-4.81-0.09-10.66-2.58-14.15-5.93c-18.82-18.03-37.04-36.69-55.48-55.11
		C233.17,142.27,226.82,138.71,219.4,138.71L219.4,138.71z"/>
</g>
<path class="st1" d="M463.12,513.41c-2.78,0-5.03-2.26-5.03-5.04V87.88c0-2.63,1.96-4.8,4.56-5.05l107.17,0.02
	c2.78,0,5.03,2.26,5.03,5.03v420.5c0,2.77-2.26,5.04-5.03,5.04H463.12z M468.14,503.34h96.64V92.89h-96.64v70.07h55.04
	c1.52,0.02,2.79,0.53,3.76,1.52c0.91,0.94,1.41,2.22,1.41,3.59c-0.04,2.7-2.3,4.91-5.03,4.91h-55.19v75.08h55.04
	c1.52,0.01,2.79,0.52,3.76,1.52c0.92,0.94,1.42,2.22,1.42,3.59c-0.04,2.7-2.3,4.91-5.03,4.91h-55.19v75.07h55.04
	c1.52,0.02,2.79,0.54,3.76,1.53c0.92,0.94,1.42,2.22,1.42,3.59c-0.04,2.7-2.3,4.91-5.03,4.91h-55.19v75.07h55.04
	c1.42,0.02,2.76,0.57,3.74,1.55c0.94,0.94,1.45,2.2,1.44,3.54c-0.04,2.73-2.3,4.94-5.03,4.94h-55.19V503.34z"/>
</svg>
