<svg id="Laag_1" data-name="Laag 1" xmlns="http://www.w3.org/2000/svg" viewBox="4 5 51 28"><defs><style>.cls-1{fill:none;stroke:#000;stroke-miterlimit:10;stroke-width:0.7px;}.cls-2{fill:#fff;}.cls-3{fill:#00d802;}</style></defs><title>Tekengebied 5</title><path class="cls-1" d="M45,13.72a9,9,0,0,0-3.16.59L39.11,5.9a.05.05,0,0,0,0,0A1.4,1.4,0,0,0,39,5.69l-.1-.15-.13-.1a.91.91,0,0,0-.16-.11l-.16,0a.71.71,0,0,0-.2,0H35.47a1,1,0,0,0,0,1.9h2.05l.85,2.63L36.26,12,25,13.33,24.37,11h2a1,1,0,0,0,0-1.9H21.18a1,1,0,0,0,0,1.9H22.4l.85,3L20,16.52A9,9,0,1,0,21.16,18L23.81,16l2,7.06a1.34,1.34,0,0,0,1,.95,1.1,1.1,0,0,0,.31,0,1.35,1.35,0,0,0,1-.43L39,11.84l1.08,3.33A9,9,0,1,0,45,13.72ZM13.47,29.91a7.15,7.15,0,1,1,5-12.22L12.89,22a.95.95,0,0,0,.58,1.7.91.91,0,0,0,.58-.2l5.59-4.32a7,7,0,0,1,1,3.57A7.14,7.14,0,0,1,13.47,29.91Zm13.89-8.32-1.8-6.41,8.7-1ZM45,29.91a7.14,7.14,0,0,1-4.1-13l3.26,6.28a1,1,0,0,0,.84.51.87.87,0,0,0,.44-.11,1,1,0,0,0,.41-1.28l-3.27-6.27A7,7,0,0,1,45,15.62a7.15,7.15,0,1,1,0,14.29Z"/><path class="cls-2" d="M30.65,19.35l-3.1.44L32,15.38l-3.26.69h-.05a1.26,1.26,0,0,1-1.28-1.25v0l0-.1,1-5.4a1.23,1.23,0,0,1,1.23-1.13h.09l.14,0,6.12,2.24a1.23,1.23,0,0,1,.57-.14h1.27a1.26,1.26,0,0,1,.57.14c.51-.2,2-.73,6.11-2.24l.09,0h.08a1.25,1.25,0,0,1,1.3,1.2l1,5.38a1.27,1.27,0,0,1-1.24,1.34h-.12l-3.22-.69,4.42,4.42-3.11-.44.45,3.1-6.93-6.92-6.92,6.92Z"/><path class="cls-2" d="M45.43,9.37a.76.76,0,0,0-.75-.72h-.06S38.36,10.93,38.27,11a.75.75,0,0,0-.5-.2H36.5a.73.73,0,0,0-.5.2c-.09-.05-6.36-2.33-6.36-2.33h-.06a.75.75,0,0,0-.74.72l-.95,5.4v.05a.76.76,0,0,0,.75.75h0l4.85-1L29,19.08l2.28-.32L30.92,21l6.21-6.22L43.35,21,43,18.76l2.28.32-4.55-4.54,4.82,1h.07a.75.75,0,0,0,.74-.75Z"/><path class="cls-3" d="M45.43,9.37a.76.76,0,0,0-.75-.72h-.06S38.36,10.93,38.27,11a.75.75,0,0,0-.5-.2H36.5a.73.73,0,0,0-.5.2c-.09-.05-6.36-2.33-6.36-2.33h-.06a.75.75,0,0,0-.74.72l-.95,5.4v.05a.76.76,0,0,0,.75.75h0l4.85-1L29,19.08l2.28-.32L30.92,21l6.21-6.22L43.35,21,43,18.76l2.28.32-4.55-4.54,4.82,1h.07a.75.75,0,0,0,.74-.75Zm-9,2.26v-.1a.11.11,0,0,1,.11-.11h1.27a.11.11,0,0,1,.11.11v1.8a.11.11,0,0,1-.11.11H36.5a.11.11,0,0,1-.11-.11Zm-7.78,3.3a.12.12,0,0,1-.09-.09l.95-5.39v0a.1.1,0,0,1,.07-.1l6.09,2.23a.1.1,0,0,1,.11.1v1.7a.11.11,0,0,1-.11.11h0Zm3.21,4.3L32,18l-1.23.17,3.89-3.89a13.71,13.71,0,0,0,1.41-.35.79.79,0,0,0,.31.13l.3.3ZM43.5,18.18,42.27,18l.18,1.22-4.87-4.86.31-.3a.85.85,0,0,0,.31-.13,13.71,13.71,0,0,0,1.41.35Zm2.16-3.25-7-1.48h-.07a.1.1,0,0,1-.1-.11v-1.7a.09.09,0,0,1,.1-.1l6.1-2.23a.1.1,0,0,1,.07.1l1,5.44A.11.11,0,0,1,45.66,14.93Z"/></svg>
