<svg id="Laag_1" data-name="Laag 1" xmlns="http://www.w3.org/2000/svg" viewBox="-.5 4 98 34"><defs><style>.cls-1,.cls-4,.cls-5{fill:none;stroke:#000;stroke-miterlimit:10;}.cls-1{stroke-width:0.34px;}.cls-2{fill:#fff;}.cls-3{fill:#00d802;}.cls-4{stroke-width:0.43px;}.cls-5{stroke-width:0.5px;}</style></defs><title>Tekengebied 8</title><path class="cls-1" d="M19.58,29a4.33,4.33,0,0,0-1.53.29l-1.52-4.71a.47.47,0,0,0-.58-.3.46.46,0,0,0-.3.58l.73,2.24-1,1.09L10,28.76l-.4-1.41A.46.46,0,0,0,9,27a.46.46,0,0,0-.31.57l.41,1.49L7.51,30.3a4.36,4.36,0,1,0,1.22,3A4.28,4.28,0,0,0,8.07,31l1.28-1,1,3.41a.66.66,0,0,0,.47.46l.16,0a.68.68,0,0,0,.48-.21l5.28-5.67.52,1.6a4.35,4.35,0,1,0,2.36-.7ZM7.81,33.32a3.45,3.45,0,1,1-3.45-3.45,3.4,3.4,0,0,1,2.42,1L4.08,33A.47.47,0,0,0,4,33.6a.45.45,0,0,0,.36.18.48.48,0,0,0,.28-.1l2.7-2.09A3.4,3.4,0,0,1,7.81,33.32Zm3.25-.57-.86-3.09,4.19-.49Zm8.52,4a3.44,3.44,0,0,1-2-6.26l1.57,3a.45.45,0,0,0,.41.25.42.42,0,0,0,.21-.06.45.45,0,0,0,.19-.61l-1.57-3a3.44,3.44,0,1,1,1.17,6.68Z"/><path class="cls-2" d="M10.77,33.91a.85.85,0,0,1-.23,0,.78.78,0,0,1-.48-.39.84.84,0,0,1-.07-.62L11.16,29a.16.16,0,0,0-.1-.21l-.47-.18h-.05l-1.25-.48c-1.13-.43-1.14-.43-1.23-.48l-.1,0c-.31,0-.67-.64-.8-.95A1.93,1.93,0,0,1,7,25.55a13.09,13.09,0,0,1,.74-2.05l.83-2.17a1.06,1.06,0,0,1,1-.67.94.94,0,0,1,.37.07l2,.77a1,1,0,0,1,.58.55,1.05,1.05,0,0,1,0,.8l-.06.16a.16.16,0,0,0,.06.2l.83.57,2.81.65a.63.63,0,0,1,.4.28.65.65,0,0,1-.55,1h0a.34.34,0,0,1-.14,0L12.77,25a.64.64,0,0,1-.46-.4.33.33,0,0,0-.16-.07h0c-.06,0-.13,0-.15.07l-.8,2.37a.17.17,0,0,0,0,.14.21.21,0,0,0,.11.08,3.53,3.53,0,0,1,.78.25l.41.16a.81.81,0,0,1,.48,1l-1.43,4.79A.81.81,0,0,1,10.77,33.91Z"/><path d="M9.59,20.82a.81.81,0,0,1,.31.06l2,.77a.88.88,0,0,1,.51,1.14l-.06.16a.33.33,0,0,0,.12.4l.84.57.11,0,2.75.62a.49.49,0,0,1,.3.21.57.57,0,0,1,.06.36.48.48,0,0,1-.47.37H16L12.8,24.8a.47.47,0,0,1-.33-.3.83.83,0,0,0-.11-.15.41.41,0,0,0-.22-.07h-.09a.34.34,0,0,0-.23.22L11,26.88a.35.35,0,0,0,.27.44,2.94,2.94,0,0,1,.72.24l.42.16a.64.64,0,0,1,.38.78l-1.43,4.78a.64.64,0,0,1-.61.46l-.18,0a.58.58,0,0,1-.38-.3.64.64,0,0,1-.05-.49L11.33,29a.33.33,0,0,0-.21-.41l-.47-.19h-.06l-1.3-.5c-1-.4-1.07-.41-1.17-.46a.32.32,0,0,0-.16,0c-.15,0-.46-.42-.64-.84a1.78,1.78,0,0,1-.11-1,17.52,17.52,0,0,1,.74-2l.82-2.16a.89.89,0,0,1,.82-.57m0-.33a1.19,1.19,0,0,0-1.13.78c-1.6,4.19-1.54,4-1.58,4.25A2.17,2.17,0,0,0,7,26.68s.44,1.05,1,1.05c.16.08,0,0,2.56,1h0l.47.18L9.83,32.82A1,1,0,0,0,10.49,34a.9.9,0,0,0,.28,0,1,1,0,0,0,.94-.7l1.42-4.79a1,1,0,0,0-.58-1.19A6.09,6.09,0,0,0,11.34,27l.8-2.37h0a.81.81,0,0,0,.58.51l3.17.72.18,0a.83.83,0,0,0,.8-.63.82.82,0,0,0-.62-1l-2.74-.62-.84-.57.07-.16a1.22,1.22,0,0,0-.7-1.57l-2-.77a1.09,1.09,0,0,0-.43-.08Z"/><path class="cls-2" d="M12.46,20.18a2.12,2.12,0,1,1,2.11-2.12A2.12,2.12,0,0,1,12.46,20.18Z"/><path class="cls-3" d="M12.46,16.12a1.95,1.95,0,1,1-2,1.94,2,2,0,0,1,2-1.94m0-.34a2.29,2.29,0,1,0,2.28,2.28,2.29,2.29,0,0,0-2.28-2.28Z"/><path class="cls-4" d="M51.72,26.45a5.64,5.64,0,0,0-2,.36l-2-6.06a.59.59,0,0,0-.74-.38.6.6,0,0,0-.38.75L47.6,24,46.29,25.4l-7,.8-.51-1.82a.6.6,0,0,0-.73-.41.59.59,0,0,0-.4.73l.53,1.92-2,1.57a5.62,5.62,0,1,0,.72.93l1.65-1.27,1.23,4.38a.85.85,0,0,0,.61.59.69.69,0,0,0,.2,0,.86.86,0,0,0,.62-.27l6.8-7.3.67,2.06a5.62,5.62,0,1,0,3-.89ZM36.57,32.06a4.44,4.44,0,1,1-1.32-3.15L31.78,31.6a.58.58,0,0,0,.36,1,.6.6,0,0,0,.36-.12L36,29.85A4.38,4.38,0,0,1,36.57,32.06Zm4.19-.73-1.11-4,5.4-.62Zm11,5.17a4.43,4.43,0,0,1-2.55-8.06l2,3.9a.58.58,0,0,0,.52.31.63.63,0,0,0,.27-.06.59.59,0,0,0,.25-.8l-2-3.89a4.38,4.38,0,0,1,1.5-.27,4.44,4.44,0,1,1,0,8.87Z"/><path class="cls-2" d="M40.38,32.83a.93.93,0,0,1-.29,0,1,1,0,0,1-.62-.5,1,1,0,0,1-.08-.79l1.5-5a.21.21,0,0,0-.13-.26l-.61-.24h-.06l-1.68-.64c-1.38-.53-1.4-.54-1.51-.6a.57.57,0,0,0-.14,0c-.38,0-.86-.82-1-1.22a2.38,2.38,0,0,1-.15-1.37,17.4,17.4,0,0,1,1-2.65l1.06-2.78a1.35,1.35,0,0,1,1.26-.86,1.27,1.27,0,0,1,.47.09l2.61,1a1.34,1.34,0,0,1,.77,1.74l-.08.21a.24.24,0,0,0,.08.26l1.08.72,3.61.84a.84.84,0,0,1,.62,1,.83.83,0,0,1-.81.65l-.18,0L43,21.31a.83.83,0,0,1-.6-.52.16.16,0,0,0-.06-.08.2.2,0,0,0-.15-.06h0a.22.22,0,0,0-.15.13l-1,3.06a.2.2,0,0,0,0,.17.19.19,0,0,0,.14.11,5,5,0,0,1,1,.31l.54.21a1.05,1.05,0,0,1,.63,1.27l-1.84,6.16A1.05,1.05,0,0,1,40.38,32.83Z"/><path d="M38.87,16a1.14,1.14,0,0,1,.4.08l2.6,1a1.13,1.13,0,0,1,.65,1.46l-.08.21a.46.46,0,0,0,.16.52l1.08.72.14.07,3.54.8a.62.62,0,0,1,.38.27.6.6,0,0,1,.08.47.61.61,0,0,1-.6.47h-.13L43,21.1a.61.61,0,0,1-.43-.38.45.45,0,0,0-.14-.19.42.42,0,0,0-.28-.1l-.12,0a.45.45,0,0,0-.29.28l-1,3.05a.43.43,0,0,0,0,.35.48.48,0,0,0,.3.22,4.48,4.48,0,0,1,.93.3l.54.2a.84.84,0,0,1,.49,1L41.17,32a.83.83,0,0,1-.79.59.8.8,0,0,1-.72-.43.82.82,0,0,1-.07-.63L41.1,26.5a.44.44,0,0,0-.26-.53l-.61-.23-.08,0-1.67-.64a11.16,11.16,0,0,1-1.51-.6.46.46,0,0,0-.21-.05c-.18,0-.59-.53-.82-1.08a2.25,2.25,0,0,1-.13-1.29,21,21,0,0,1,.94-2.58l1.06-2.77A1.14,1.14,0,0,1,38.87,16m0-.43a1.55,1.55,0,0,0-1.46,1c-2.06,5.4-2,5.12-2,5.47a2.73,2.73,0,0,0,.17,1.5s.56,1.35,1.22,1.35c.22.11,0,0,3.31,1.28h0l.61.24-1.5,5.05A1.26,1.26,0,0,0,40,33a1.12,1.12,0,0,0,.36,0,1.26,1.26,0,0,0,1.21-.89L43.43,26a1.26,1.26,0,0,0-.76-1.53,7.56,7.56,0,0,0-1.55-.53l1-3.06h0a1,1,0,0,0,.75.65l4.08.93.23,0a1,1,0,0,0,.23-2.07l-3.53-.81-1.07-.72.08-.22a1.56,1.56,0,0,0-.9-2l-2.61-1a1.52,1.52,0,0,0-.55-.1Z"/><path class="cls-2" d="M42.56,15.15a2.73,2.73,0,1,1,2.72-2.72A2.72,2.72,0,0,1,42.56,15.15Z"/><path class="cls-3" d="M42.56,9.92a2.51,2.51,0,1,1-2.51,2.51,2.51,2.51,0,0,1,2.51-2.51m0-.43a2.94,2.94,0,1,0,2.94,2.94,2.93,2.93,0,0,0-2.94-2.94Z"/><path class="cls-5" d="M90,24.64a6.37,6.37,0,0,0-2.28.42l-2.28-7a.69.69,0,0,0-1.31.42l1.08,3.34-1.52,1.64-8.09.93L75,22.24a.69.69,0,1,0-1.32.37l.62,2.23L72,26.65a6.6,6.6,0,1,0,.84,1.09l1.91-1.48,1.43,5.09a1,1,0,0,0,.71.69l.23,0a1,1,0,0,0,.72-.31l7.9-8.48.78,2.4a6.51,6.51,0,1,0,3.52-1ZM72.44,31.16A5.17,5.17,0,1,1,70.9,27.5l-4,3.12a.69.69,0,0,0-.13,1,.71.71,0,0,0,.55.26.68.68,0,0,0,.42-.14l4-3.12A5.14,5.14,0,0,1,72.44,31.16Zm4.86-.85L76,25.69,82.28,25Zm12.73,6a5.15,5.15,0,0,1-3-9.36l2.35,4.52a.67.67,0,0,0,.61.37.68.68,0,0,0,.61-1l-2.36-4.52A5.07,5.07,0,0,1,90,26a5.15,5.15,0,1,1,0,10.3Z"/><path class="cls-2" d="M76.86,32a1,1,0,0,1-.34-.05,1.19,1.19,0,0,1-.72-.58,1.23,1.23,0,0,1-.1-.92l1.75-5.86a.25.25,0,0,0-.15-.31l-.71-.27-.06,0-2-.76c-1.57-.6-1.58-.6-1.72-.67a.38.38,0,0,0-.15-.05c-.45,0-1-.95-1.19-1.42a2.88,2.88,0,0,1-.18-1.59,21.12,21.12,0,0,1,1.1-3l1.25-3.26a1.57,1.57,0,0,1,1.46-1,1.78,1.78,0,0,1,.56.1l3,1.16a1.56,1.56,0,0,1,.87.82,1.54,1.54,0,0,1,0,1.19l-.09.25a.24.24,0,0,0,.09.3l1.25.84,4.19,1a1,1,0,0,1,.6.42.94.94,0,0,1,.12.73,1,1,0,0,1-.94.75h0l-.21,0-4.74-1.08a1,1,0,0,1-.69-.6.23.23,0,0,0-.07-.1.28.28,0,0,0-.17-.07h-.06a.26.26,0,0,0-.18.16l-1.21,3.55a.28.28,0,0,0,0,.2.26.26,0,0,0,.17.12,6.35,6.35,0,0,1,1.16.37l.61.24A1.2,1.2,0,0,1,80.15,24L78,31.18A1.21,1.21,0,0,1,76.86,32Z"/><path d="M75.1,12.48a1.27,1.27,0,0,1,.47.09l3,1.15a1.33,1.33,0,0,1,.76,1.69l-.1.25a.52.52,0,0,0,.19.6l1.25.84a.53.53,0,0,0,.17.08l4.1.93a.74.74,0,0,1,.45.32.71.71,0,0,1-.61,1.09l-.15,0L79.9,18.42a.69.69,0,0,1-.5-.44.69.69,0,0,0-.16-.22.56.56,0,0,0-.32-.11.32.32,0,0,0-.14,0,.48.48,0,0,0-.34.32l-1.2,3.54a.52.52,0,0,0,.05.42.56.56,0,0,0,.35.25,5.08,5.08,0,0,1,1.08.35l.62.24A1,1,0,0,1,79.91,24l-2.13,7.16a1,1,0,0,1-.92.68.84.84,0,0,1-.27,0A1,1,0,0,1,76,30.56l1.74-5.86a.49.49,0,0,0-.3-.61l-.71-.28-.09,0-1.94-.74a14.09,14.09,0,0,1-1.75-.7.69.69,0,0,0-.24-.05c-.22,0-.69-.63-1-1.26a2.62,2.62,0,0,1-.15-1.5,21.11,21.11,0,0,1,1.09-3l1.24-3.22a1.31,1.31,0,0,1,1.22-.85m0-.5a1.82,1.82,0,0,0-1.7,1.17C71,19.41,71.11,19.08,71,19.5a3.18,3.18,0,0,0,.19,1.73s.66,1.57,1.43,1.57c.25.13,0,0,3.84,1.49h0l.71.28-1.75,5.86a1.47,1.47,0,0,0,1,1.82,1.52,1.52,0,0,0,.42.06,1.46,1.46,0,0,0,1.4-1L80.4,24.1a1.48,1.48,0,0,0-.88-1.79,8.76,8.76,0,0,0-1.81-.61l1.21-3.55h0a1.21,1.21,0,0,0,.86.75L84.53,20a1.31,1.31,0,0,0,.27,0,1.21,1.21,0,0,0,.27-2.4L81,16.69l-1.25-.85.1-.25a1.82,1.82,0,0,0-1-2.34l-3-1.15A1.91,1.91,0,0,0,75.1,12Z"/><path class="cls-2" d="M79.39,11.52a3.17,3.17,0,1,1,3.16-3.16A3.17,3.17,0,0,1,79.39,11.52Z"/><path class="cls-3" d="M79.39,5.44a2.92,2.92,0,1,1-2.91,2.92,2.92,2.92,0,0,1,2.91-2.92m0-.5A3.42,3.42,0,1,0,82.8,8.36a3.42,3.42,0,0,0-3.41-3.42Z"/></svg>
