<svg id="Laag_1" data-name="Laag 1" xmlns="http://www.w3.org/2000/svg" viewBox="4.5 1 41 33"><defs><style>.cls-1,.cls-2{fill:#fff;}.cls-1{stroke:#000;stroke-linecap:round;stroke-linejoin:round;}.cls-3{fill:#00d802;}</style></defs><title>Tekengebied 3</title><path class="cls-1" d="M32.6,6,43.67,8.73a1.59,1.59,0,0,1,.77,2.64l-9.73,10.2V33"/><path class="cls-1" d="M17.6,6,6.52,8.73a1.59,1.59,0,0,0-.77,2.64l9.74,10.2V33"/><polyline class="cls-1" points="18.39 9.9 12.62 11.94 17.89 16.91 19.52 16.13 25.1 16.13 30.68 16.13 32.31 16.91 37.58 11.94 31.93 9.95"/><path class="cls-2" d="M25.2,12.8a5.57,5.57,0,1,1,5.56-5.56A5.57,5.57,0,0,1,25.2,12.8Z"/><path class="cls-3" d="M25.2,2.17a5.07,5.07,0,1,1-5.07,5.07A5.07,5.07,0,0,1,25.2,2.17m0-1a6.07,6.07,0,1,0,6.06,6.07A6.07,6.07,0,0,0,25.2,1.17Z"/></svg>
