<svg id="Laag_1" data-name="Laag 1" xmlns="http://www.w3.org/2000/svg" viewBox="7.5 4 38.5 35"><defs><style>.cls-1{fill:#fff;}.cls-2{fill:#00d802;}</style></defs><title>Tekengebied 7</title><path class="cls-1" d="M35.32,18.22a.35.35,0,0,0-.34-.35,16.17,16.17,0,0,1-6.11-1.25,8.1,8.1,0,0,1-3.93-5.34,52.61,52.61,0,0,0,5.53.48,4.51,4.51,0,0,1,4.18,2.74.34.34,0,0,0,.32.2H35a.34.34,0,0,0,.28-.34v-.41c-.14-.66-1.16-5.83,3.46-7A40.49,40.49,0,0,0,44,5.18a7.72,7.72,0,0,1-2.6,6.11,15.85,15.85,0,0,1-5.76,2.58.35.35,0,0,0-.26.34V27.84h-.08Zm-9.81-6.81a.35.35,0,0,0-.34.45,8,8,0,0,0,3.73,4.68,14.31,14.31,0,0,0,5.47,1.22h0a.35.35,0,0,0,.24-.6,11.29,11.29,0,0,0-3.19-2.22,9.77,9.77,0,0,1,3.21,2.13.38.38,0,0,0,.24.09.29.29,0,0,0,.16,0,.34.34,0,0,0,.19-.36c-.19-1.44-1.05-4.8-4.77-4.91a45.89,45.89,0,0,1-4.91-.44Zm13-1.26h0a12.21,12.21,0,0,0-2.64,2.92.36.36,0,0,0,0,.4.33.33,0,0,0,.28.15h.1a14.31,14.31,0,0,0,5.06-2.39A8,8,0,0,0,44,5.83a.35.35,0,0,0-.14-.3.35.35,0,0,0-.21-.07.27.27,0,0,0-.13,0A44.11,44.11,0,0,1,38.81,7c-3.61.93-3.7,4.4-3.58,5.84a.37.37,0,0,0,.26.31h.09a.33.33,0,0,0,.29-.15,11.61,11.61,0,0,1,2.63-2.85Z"/><path class="cls-2" d="M44,4.83a.45.45,0,0,0-.16,0A40.89,40.89,0,0,1,38.7,6.57c-4.93,1.28-3.87,6.77-3.73,7.37v.41a4.88,4.88,0,0,0-4.49-2.93,41,41,0,0,1-5.5-.54.4.4,0,0,0-.28.12.4.4,0,0,0-.11.34,8.48,8.48,0,0,0,4.11,5.59A16.17,16.17,0,0,0,35,18.22v10l.83-.13,0-.19h0V14.21a16.05,16.05,0,0,0,5.9-2.66A8.49,8.49,0,0,0,44.43,5.2a.44.44,0,0,0-.18-.31A.42.42,0,0,0,44,4.83Zm-8.46,8c-.13-1.55,0-4.63,3.31-5.47a45.44,45.44,0,0,0,4.74-1.52A7.62,7.62,0,0,1,41.14,11a14.35,14.35,0,0,1-4.94,2.32,11,11,0,0,1,2.54-2.77.38.38,0,0,0,.16-.25.36.36,0,0,0-.06-.29.37.37,0,0,0-.32-.17.34.34,0,0,0-.22.07,11.42,11.42,0,0,0-2.72,2.93Zm-1.19,4.61a14.31,14.31,0,0,1-5.32-1.17,7.63,7.63,0,0,1-3.56-4.48,46.91,46.91,0,0,0,4.95.44c3.38.1,4.22,3.07,4.43,4.61a11.58,11.58,0,0,0-3.29-2.27l-.15,0a.39.39,0,0,0-.36.25.39.39,0,0,0,.22.51,10.87,10.87,0,0,1,3.08,2.14Z"/><path d="M44.72,28.59a2.91,2.91,0,0,0-1.91-.71l-.43,0-9.66,1.44a3.35,3.35,0,0,0-2.56-5.54h-.77c-2.14,0-5.19-.08-7-.8a8.26,8.26,0,0,0-3-.55,11.94,11.94,0,0,0-4.65,1V21.7a.39.39,0,0,0-.39-.39H8.2a.39.39,0,0,0-.39.39V38a.38.38,0,0,0,.39.39h6.09a.38.38,0,0,0,.39-.39V35.84l9.15,1.55a25.68,25.68,0,0,0,3.92.3,25.13,25.13,0,0,0,8.42-1.44l7.62-2.7a2.92,2.92,0,0,0,.93-5Zm-30-4.25a11.61,11.61,0,0,1,4.68-1.09,7.4,7.4,0,0,1,2.7.48c2,.77,5.12.86,7.31.86h.82a2.56,2.56,0,0,1,2.57,2.57,2.57,2.57,0,0,1-1.87,2.46l-.72.11H24.88a.39.39,0,1,0,0,.77h5.31a3.22,3.22,0,0,0,.93-.13l4.24-.61a.25.25,0,0,0,.16,0l7-1,.31,0A2.14,2.14,0,0,1,45,30.8a2.14,2.14,0,0,1-1.42,2l-7.62,2.7a24.35,24.35,0,0,1-8.16,1.4,25.39,25.39,0,0,1-3.8-.29l-9.27-1.57ZM8.59,37.59V22.09H13.9v15.5Z"/></svg>
