<svg id="Laag_1" data-name="Laag 1" xmlns="http://www.w3.org/2000/svg" viewBox="7.5 4.5 30 27"><defs><style>.cls-1{fill:none;stroke:#000;stroke-miterlimit:10;stroke-width:0.84px;}.cls-2{fill:#fff;}.cls-3{fill:#00d802;}</style></defs><title>Tekengebied 4</title><path class="cls-1" d="M28.37,5.53h-.08a9.67,9.67,0,0,0-5.86,2.08,8.44,8.44,0,0,0-5.28-2.37A8.63,8.63,0,0,0,10.9,7.88a9.14,9.14,0,0,0,0,12.7l10,9.6a2.26,2.26,0,0,0,3.13,0l9.92-9.57,0,0a9.16,9.16,0,0,0,0-12.7A7.82,7.82,0,0,0,28.37,5.53Z"/><path class="cls-2" d="M28,20.86a2.92,2.92,0,0,1-1.58-5.38.27.27,0,0,0,.11-.31L26.13,14a.25.25,0,0,0-.19-.17h-.06a.27.27,0,0,0-.19.08l-3.86,4.15a.24.24,0,0,1-.16.07.25.25,0,0,1-.2-.16l-.7-2.49a.29.29,0,0,0-.18-.18h-.08a.3.3,0,0,0-.16.05l-.94.73a.26.26,0,0,0-.06.34A2.92,2.92,0,1,1,16.87,15a2.88,2.88,0,0,1,2.11.91.27.27,0,0,0,.19.08.27.27,0,0,0,.16-.06l1.15-.88a.28.28,0,0,0,.09-.29l-.3-1.07a.27.27,0,0,0-.26-.19h-.42v-.14h1.83v.14h-.71a.28.28,0,0,0-.21.1.26.26,0,0,0,0,.24l.23.83a.27.27,0,0,0,.25.19l4-.45a.26.26,0,0,0,.16-.09l.75-.8a.27.27,0,0,0,.06-.26l-.3-.92a.28.28,0,0,0-.26-.19h-.72V12h1s.09.1.1.12L26.61,15a.32.32,0,0,0,.14.16.27.27,0,0,0,.12,0l.09,0A3,3,0,0,1,28,15a2.93,2.93,0,1,1,0,5.85Zm-1.44-5.25a.3.3,0,0,0-.16.05,2.78,2.78,0,1,0,1.6-.51,2.74,2.74,0,0,0-.94.17.29.29,0,0,0-.16.15.28.28,0,0,0,0,.22l1.16,2.21L28,18l-1.21-2.25a.26.26,0,0,0-.17-.14Zm-9.67-.46a2.8,2.8,0,1,0,2.4,1.39.26.26,0,0,0-.18-.12H19a.27.27,0,0,0-.16.06l-2,1.52h-.1l2-1.63a.26.26,0,0,0,0-.39A2.76,2.76,0,0,0,16.87,15.15ZM21.1,15a.27.27,0,0,0-.19.11.29.29,0,0,0,0,.22l.64,2.26a.28.28,0,0,0,.19.19h.06a.25.25,0,0,0,.2-.09l2.43-2.61a.26.26,0,0,0,0-.3.26.26,0,0,0-.23-.15Z"/><path class="cls-3" d="M25.59,11.76h-1a.34.34,0,0,0,0,.67h.72l.3.92-.74.8-4,.46-.23-.84h.71a.34.34,0,1,0,0-.67H19.59a.34.34,0,1,0,0,.67H20l.31,1.08-1.15.88a3.16,3.16,0,1,0,.41.53l.93-.72.7,2.49a.48.48,0,0,0,.35.34h.11a.47.47,0,0,0,.35-.15l3.86-4.15.38,1.18A3.18,3.18,0,1,0,28,14.75a3.12,3.12,0,0,0-1.11.2l-1-3h0a.33.33,0,0,0,0-.06l0-.06,0,0a.1.1,0,0,0-.05,0l-.06,0h-.08Zm-3.83,5.76-.63-2.26,3.07-.35-2.44,2.61Zm6.22.75a.32.32,0,0,0,.16,0,.34.34,0,0,0,.14-.45l-1.15-2.21a2.37,2.37,0,0,1,.85-.15,2.54,2.54,0,1,1-1.44.46l1.14,2.21a.33.33,0,0,0,.3.18ZM16.87,20.45a2.52,2.52,0,1,1,1.76-4.3l-2,1.52a.34.34,0,0,0,.21.6.31.31,0,0,0,.2-.07l2-1.52a2.45,2.45,0,0,1,.34,1.26,2.52,2.52,0,0,1-2.51,2.51Z"/></svg>
