<svg id="Laag_1" data-name="Laag 1" xmlns="http://www.w3.org/2000/svg" viewBox="13.8 6.7 25 25"><defs><style>.cls-1{fill:#fff;}.cls-2{fill:#00d802;}</style></defs><title>Tekengebied 1</title><circle cx="22.01" cy="18.02" r="0.92"/><path d="M30.63,19a.93.93,0,1,1,0-1.85.93.93,0,0,1,0,1.85Z"/><path d="M26.24,31.41A12.34,12.34,0,0,1,14.07,19.23,12.34,12.34,0,0,1,26.24,7.06,12.34,12.34,0,0,1,38.42,19.23,12.35,12.35,0,0,1,26.24,31.41ZM26.24,8A11.35,11.35,0,0,0,15,19.23a11.35,11.35,0,0,0,11.2,11.21A11.36,11.36,0,0,0,37.45,19.23,11.35,11.35,0,0,0,26.24,8Z"/><path class="cls-1" d="M26.24,26.38a6.27,6.27,0,0,1-5.47-3,.13.13,0,0,1,.05-.18h.06a.13.13,0,0,1,.12.06,6,6,0,0,0,5.24,2.85,6,6,0,0,0,5.25-2.85.14.14,0,0,1,.11-.07c.13.06.16.14.12.2A6.27,6.27,0,0,1,26.24,26.38Z"/><path class="cls-2" d="M31.6,22.84a.49.49,0,0,0-.42.24,5.64,5.64,0,0,1-4.94,2.68,5.65,5.65,0,0,1-4.94-2.68.47.47,0,0,0-.42-.24.44.44,0,0,0-.24.07.48.48,0,0,0-.17.66,6.61,6.61,0,0,0,5.77,3.16A6.62,6.62,0,0,0,32,23.57a.48.48,0,0,0-.17-.66.45.45,0,0,0-.25-.07Z"/></svg>
